<?xml version="1.0" encoding="utf-8"?>
<!-- Generator: Adobe Illustrator 21.1.0, SVG Export Plug-In . SVG Version: 6.00 Build 0)  -->
<svg version="1.1" id="level001" xmlns="http://www.w3.org/2000/svg" xmlns:xlink="http://www.w3.org/1999/xlink" x="0px" y="0px"
	 viewBox="0 0 1296 850" style="enable-background:new 0 0 1296 850;" xml:space="preserve">
<style type="text/css">
	.st0{display:none;}
	.st1{fill:none;stroke:#FFFDD0;stroke-width:2.5;stroke-miterlimit:10;}
	.st2{fill:none;stroke:#FFFFFF;stroke-width:2.5;stroke-miterlimit:10;}
	.st3{fill:none;stroke:#FFFFFF;stroke-width:2.5;stroke-linecap:round;stroke-miterlimit:10;}
	.st4{fill:none;stroke:#FFFFFF;stroke-width:2.5;stroke-linejoin:round;stroke-miterlimit:10;}
	.st5{fill:none;stroke:#FFFDD0;stroke-width:2;stroke-miterlimit:10;}
	.st6{fill:none;stroke:#FFFFFF;stroke-width:2;stroke-miterlimit:10;}
</style>
<rect class="st0" width="1296" height="850"/>
<polyline class="st1" points="418,556 392,541 326,580 330,599 369,622 441,664 416,678 493,722 696,604 561,525 898,328 659,190
	513,165 435,210 470,272 423,299 352,257 20,450 95,494 122,478 236,544 267,545 334,507 309.5,493.5 "/>
<polyline class="st2" points="448,575 461,583 561,525 "/>
<polyline class="st2" points="277.5,476.5 193.5,427.5 310.5,361.5 381.5,402.5 "/>
<line class="st2" x1="265.5" y1="469.5" x2="302.5" y2="447.5"/>
<line class="st2" x1="343.5" y1="424.5" x2="391.5" y2="396.5"/>
<polyline class="st2" points="420.5,297.5 488.5,338.5 573.5,288.5 507.5,250.5 356.5,338.5 425.5,377.5 "/>
<line class="st2" x1="412.5" y1="385.5" x2="441.5" y2="369.5"/>
<polyline class="st2" points="480.5,460.5 480.5,476.5 471.5,476.5 471.5,461.5 459.5,461.5 459.5,492.5 473.5,492.5 516.5,464.5
	554.5,464.5 554.5,389.5 515.5,372.5 516.5,465.5 "/>
<polyline class="st2" points="480.5,470.5 489.5,470.5 489.5,459.5 489.5,465.5 498.5,465.5 498.5,459.5 506.5,459.5 506.5,426.5
	516.5,426.5 "/>
<polyline class="st2" points="459.5,482.9 471.5,482.9 471.5,468.5 "/>
<line class="st2" x1="507" y1="454.2" x2="554.5" y2="454.2"/>
<line class="st2" x1="516.5" y1="390.6" x2="554.5" y2="390.6"/>
<line class="st2" x1="517" y1="398.5" x2="555" y2="398.5"/>
<line class="st2" x1="517" y1="406.5" x2="555" y2="406.5"/>
<polyline class="st2" points="517,414.5 555,414.5 590.5,435.5 "/>
<line class="st2" x1="517" y1="422.5" x2="555" y2="422.5"/>
<polyline class="st2" points="498.5,385.5 486.5,377.5 734.6,233.7 "/>
<line class="st2" x1="606.5" y1="446.5" x2="652.2" y2="471.7"/>
<path class="st2" d="M553.8,338.5c0,0,54.8-28,100.8-29v29"/>
<path class="st2" d="M732.1,425c0,0,31.4-25.5,35.4-45.5v24.8"/>
<path class="st2" d="M734.6,422.5c-105.9-25-158.9-93.8-158.9-93.8l14.8-0.2c0,0,44.2,58,151.1,88"/>
<path class="st3" d="M594.2,332.8l10.3-0.3c0,0,68,62,143,78"/>
<path class="st3" d="M608.9,336.3l11.6-0.8c0,0,47,48.1,132.5,69"/>
<path class="st3" d="M623.7,338.5l9.8-1c0,0,55.3,46.8,123.7,61.9"/>
<path class="st3" d="M635.4,338.5l10.1-1c0,0,37.8,36.7,114.9,57.4"/>
<path class="st3" d="M649.6,339.9l8.9-0.4c0,0,38.8,31.9,104.9,50.5"/>
<path class="st2" d="M684.5,297.5c0,0,33.2,36,143.1,71.5"/>
<path class="st2" d="M688.9,301.6l9.6-1.1c0,0,56.3,43.5,136.7,64.2"/>
<path class="st2" d="M701.5,302.5l9-2c0,0,38,32,122,58v5.5"/>
<path class="st2" d="M714.5,303.5l11-2c0,0,31,26,104,50v6.4"/>
<polyline class="st1" points="1082.5,424.5 997.5,379.5 981.5,392.5 919.5,381.5 864.5,495.5 1142.5,656.5 1274.5,581.5
	1242.5,562.5 "/>
<line class="st1" x1="1217.5" y1="549.5" x2="1134.5" y2="501.5"/>
<polyline class="st2" points="944.7,540.8 979.5,478.5 1025.5,451.5 1036.5,458.5 1036.5,467.5 1046.5,473.5 1046.5,481.5
	1057.5,487.5 1057.5,496.5 1016.5,520.5 990.5,568.5 "/>
<polyline class="st2" points="946.5,538.5 959.5,538.5 959.5,547.5 973.5,547.5 973.5,556.5 989.5,556.5 989.5,566.5 "/>
<polyline class="st2" points="959.5,538.5 987.5,487.5 1036.5,458.5 "/>
<polyline class="st2" points="961.5,546.5 992.5,492.5 1036.5,467.5 "/>
<polyline class="st2" points="973.5,547.5 999.5,501.5 1046.5,473.5 "/>
<polyline class="st2" points="975.5,556.5 1004.5,506.5 1046.5,481.5 "/>
<polyline class="st2" points="989.5,556.5 1011.5,516.5 1057.5,487.5 "/>
<polyline class="st2" points="1002.4,465.1 1013,472.4 1013,480.9 1023.5,486.5 1023.5,495.2 1034.4,502.1 1034.4,509.5 "/>
<polyline class="st4" points="1093.5,479.5 1093.5,469.5 1083.5,464.5 1083.5,456.5 1073.5,450.5 1073.5,442.5 1062.5,435.5
	1082.5,424.5 "/>
<polyline class="st3" points="1062.5,435.5 1062.5,461.5 1094.5,479.5 "/>
<line class="st4" x1="1036.5" y1="462" x2="1062.5" y2="448.1"/>
<line class="st4" x1="1073.5" y1="442.5" x2="1116.5" y2="417.6"/>
<line class="st4" x1="1073.5" y1="450.5" x2="1117.5" y2="425.1"/>
<line class="st4" x1="1083.5" y1="456.5" x2="1126.5" y2="431.7"/>
<line class="st4" x1="1083.5" y1="464.5" x2="1127.7" y2="439"/>
<line class="st4" x1="1093.5" y1="469.5" x2="1137.5" y2="444.5"/>
<polyline class="st2" points="1082.5,424.5 1107.5,410.5 1116.5,416.5 1116.5,424.5 1126.5,430.5 1126.5,438.5 1137.5,443.5
	1137.5,455.5 1094.5,479.5 "/>
<line class="st1" x1="1108.5" y1="486.5" x2="1095.2" y2="478.5"/>
<polygon id="triangle" class="st5" points="287.5,164.4 260.6,211 314.4,211 "/>
<circle id="circle" class="st5" cx="121.8" cy="595.6" r="26.9"/>
<rect id="square" x="827.4" y="643.7" class="st5" width="53.7" height="53.7"/>
<polyline class="st6" points="153.5,426.5 121.5,426.5 121.5,546.5 "/>
<polyline class="st6" points="231,426 231,366 338,366 338,398 "/>
<polyline class="st6" points="1102,587 854,587 854,621 "/>
<line class="st6" x1="288" y1="235" x2="288" y2="366"/>
</svg>
