<svg id="level002" xmlns="http://www.w3.org/2000/svg" viewBox="0 0 1257.99 654.62"><title>002</title>
  <polygon points="2.49 391.18 323.49 207.18 458.49 285.18 538.49 239.18 404.49 159.18 616.49 37.18 977.49 245.18 1063.49 349.18 1073.49 355.18 1073.49 365.18 1082.49 370.18 1082.49 378.18 1092.49 384.18 1092.49 392.18 1079.49 400.18 1255.49 501.18 1128.49 575.18 887.49 437.18 716.49 535.18 684.49 517.18 449.49 653.18 2.49 391.18" style="fill:none;stroke:red;stroke-miterlimit:10;stroke-width:2.5px"/><line x1="1028.75" y1="371.05" x2="1065.26" y2="350.24" style="fill:none;stroke:#fff;stroke-miterlimit:10;stroke-width:2.5px"/>
  <line x1="1072.99" y1="355.68" x2="1037.23" y2="375.92" style="fill:none;stroke:#fff;stroke-miterlimit:10;stroke-width:2.5px"/>
  <line x1="1072.99" y1="364.68" x2="1046.05" y2="380.98" style="fill:none;stroke:#fff;stroke-miterlimit:10;stroke-width:2.5px"/>
  <line x1="1054.59" y1="386.46" x2="1081.99" y2="369.68" style="fill:none;stroke:#fff;stroke-miterlimit:10;stroke-width:2.5px"/>
  <line x1="1062.17" y1="390.23" x2="1082.99" y2="377.68" style="fill:none;stroke:#fff;stroke-miterlimit:10;stroke-width:2.5px"/>
  <line x1="1073.24" y1="396.59" x2="1092.99" y2="383.68" style="fill:none;stroke:#fff;stroke-miterlimit:10;stroke-width:2.5px"/>
  <line x1="72.59" y1="432.26" x2="119.49" y2="405.18" style="fill:none;stroke:#fff;stroke-miterlimit:10;stroke-width:2.5px"/>
  <polygon points="715.13 507.26 714.98 499.93 738.28 512.47 738.43 519.8 715.13 507.26" style="fill:none;stroke:#fff;stroke-linejoin:round;stroke-width:2.5px"/>
  <line x1="136.36" y1="469.64" x2="179.49" y2="444.18" style="fill:none;stroke:#fff;stroke-miterlimit:10;stroke-width:2.5px"/>
  <line x1="202.62" y1="508.48" x2="293.49" y2="455.18" style="fill:none;stroke:#fff;stroke-miterlimit:10;stroke-width:2.5px"/>
  <line x1="267.21" y1="546.34" x2="312.49" y2="519.18" style="fill:none;stroke:#fff;stroke-miterlimit:10;stroke-width:2.5px"/>
  <line x1="321.89" y1="578.39" x2="411.49" y2="525.18" style="fill:none;stroke:#fff;stroke-miterlimit:10;stroke-width:2.5px"/>
  <line x1="384.69" y1="615.19" x2="431.49" y2="587.18" style="fill:none;stroke:#fff;stroke-miterlimit:10;stroke-width:2.5px"/>
  <line x1="568.62" y1="584.24" x2="548.49" y2="571.18" style="fill:none;stroke:#fff;stroke-miterlimit:10;stroke-width:2.5px"/>
  <line x1="606.86" y1="562.11" x2="583.49" y2="548.18" style="fill:none;stroke:#fff;stroke-miterlimit:10;stroke-width:2.5px"/>
  <line x1="121.09" y1="323.19" x2="145.49" y2="338.18" style="fill:none;stroke:#fff;stroke-miterlimit:10;stroke-width:2.5px"/>
  <line x1="257.96" y1="244.74" x2="280.49" y2="258.18" style="fill:none;stroke:#fff;stroke-miterlimit:10;stroke-width:2.5px"/>
  <line x1="391.08" y1="246.23" x2="312.49" y2="292.18" style="fill:none;stroke:#fff;stroke-miterlimit:10;stroke-width:2.5px"/>
  <polyline points="298.49 269.18 391.49 322.18 403.49 314.18" style="fill:none;stroke:#fff;stroke-miterlimit:10;stroke-width:2.5px"/>
  <line x1="797.17" y1="486.71" x2="796.33" y2="449.72" style="fill:none;stroke:#fff;stroke-linecap:round;stroke-linejoin:round;stroke-width:2.5px"/>
  <line x1="444.49" y1="293.18" x2="462.19" y2="283.05" style="fill:none;stroke:#fff;stroke-miterlimit:10;stroke-width:2.5px"/>
  <line x1="537.6" y1="238.65" x2="566.49" y2="256.18" style="fill:none;stroke:#fff;stroke-miterlimit:10;stroke-width:2.5px"/>
  <polyline points="605.49 234.18 596.49 239.18 568.49 223.18 645.49 179.18 672.49 195.18 664.49 200.18" style="fill:none;stroke:#fff;stroke-miterlimit:10;stroke-width:2.5px"/>
  <line x1="147.99" y1="388.68" x2="298.99" y2="300.68" style="fill:none;stroke:#fff;stroke-miterlimit:10;stroke-width:2.5px"/>
  <polyline points="166.99 349.68 440.99 508.68 544.99 448.68 544.99 381.68 521.99 367.68 507.99 375.68 507.99 442.68 477.99 442.68 442.99 462.68" style="fill:none;stroke:#fff;stroke-miterlimit:10;stroke-width:2.5px"/>
  <line x1="229.16" y1="341.38" x2="265.99" y2="363.68" style="fill:none;stroke:#fff;stroke-miterlimit:10;stroke-width:2.5px"/>
  <line x1="233.99" y1="282.68" x2="298.99" y2="320.68" style="fill:none;stroke:#fff;stroke-miterlimit:10;stroke-width:2.5px"/>
  <line x1="347.43" y1="347.3" x2="323.99" y2="333.68" style="fill:none;stroke:#fff;stroke-miterlimit:10;stroke-width:2.5px"/>
  <line x1="384.69" y1="476" x2="340.99" y2="500.68" style="fill:none;stroke:#fff;stroke-miterlimit:10;stroke-width:2.5px"/>
  <line x1="437.38" y1="506.58" x2="458.99" y2="519.68" style="fill:none;stroke:#fff;stroke-miterlimit:10;stroke-width:2.5px"/>
  <line x1="533.86" y1="455.1" x2="571.99" y2="478.68" style="fill:none;stroke:#fff;stroke-miterlimit:10;stroke-width:2.5px"/>
  <path d="M733.54,333.69,759,319l7,4-26,15-6.46-3.69A.36.36,0,0,1,733.54,333.69Z" transform="translate(-6.51 -102.82)" style="fill:none;stroke:#fff;stroke-linejoin:round;stroke-width:2.5px"/>
  <polygon points="737.49 233.18 763.49 218.18 770.49 222.18 744.49 237.18 737.49 233.18" style="fill:none;stroke:#fff;stroke-linejoin:round;stroke-width:2.5px"/>
  <path d="M807,352l26-15,16.16,7.61a.46.46,0,0,1,0,.83L822.5,359.5Z" transform="translate(-6.51 -102.82)" style="fill:none;stroke:#fff;stroke-linejoin:round;stroke-width:2.5px"/>
  <polygon points="755.49 237.18 781.49 222.18 797.49 231.18 771.49 246.18 755.49 237.18" style="fill:none;stroke:#fff;stroke-linejoin:round;stroke-width:2.5px"/>
  <polygon points="748.49 235.18 774.49 220.18 779.49 223.18 753.49 238.18 748.49 235.18" style="fill:none;stroke:#fff;stroke-linejoin:round;stroke-width:2.5px"/>
  <polygon points="774.49 245.18 800.49 230.18 805.49 233.18 779.49 248.18 774.49 245.18" style="fill:none;stroke:#fff;stroke-linejoin:round;stroke-width:2.5px"/>
  <polygon points="783.49 246.18 809.49 231.18 814.49 234.18 788.49 249.18 783.49 246.18" style="fill:none;stroke:#fff;stroke-linejoin:round;stroke-width:2.5px"/>
  <polygon points="792.49 247.18 818.49 232.18 823.49 235.18 797.49 250.18 792.49 247.18" style="fill:none;stroke:#fff;stroke-linejoin:round;stroke-width:2.5px"/>
  <polyline points="842.99 242.68 842.99 272.68 815.99 289.68 815.99 256.85 815.99 289.68 726.99 237.68 726.99 231.68" style="fill:none;stroke:#fff;stroke-linejoin:round;stroke-width:2.5px"/>
  <polyline points="634.99 515.68 592.99 491.68 456.99 570.68" style="fill:none;stroke:#fff;stroke-miterlimit:10;stroke-width:2.5px"/>
  <polyline points="790.99 384.68 721.99 345.68 578.99 429.68 672.99 485.68" style="fill:none;stroke:#fff;stroke-linejoin:round;stroke-width:2.5px"/>
  <line x1="601.99" y1="469.68" x2="767.25" y2="371.26" style="fill:none;stroke:#fff;stroke-linejoin:round;stroke-width:2.5px"/>
  <line x1="682.43" y1="421.77" x2="749.99" y2="461.68" style="fill:none;stroke:#fff;stroke-linejoin:round;stroke-width:2.5px"/>
  <polygon points="723.37 495.06 723.22 488.73 747.52 501.25 747.67 507.58 723.37 495.06" style="fill:none;stroke:#fff;stroke-linejoin:round;stroke-width:2.5px"/>
  <polygon points="734.11 483.81 733.96 477.48 758.26 490 758.41 496.33 734.11 483.81" style="fill:none;stroke:#fff;stroke-linejoin:round;stroke-width:2.5px"/>
  <polygon points="742.82 471.6 742.67 465.27 766.98 477.79 767.12 484.12 742.82 471.6" style="fill:none;stroke:#fff;stroke-linejoin:round;stroke-width:2.5px"/>
  <polygon points="751.56 460.39 751.41 454.06 775.72 466.58 775.86 472.91 751.56 460.39" style="fill:none;stroke:#fff;stroke-linejoin:round;stroke-width:2.5px"/>
  <polygon points="762.3 449.14 762.15 442.81 786.45 455.33 786.6 461.66 762.3 449.14" style="fill:none;stroke:#fff;stroke-linejoin:round;stroke-width:2.5px"/>
  <polygon points="715.47 499.63 723.38 495.44 747.67 507.87 738.79 513.08 715.47 499.63" style="fill:none;stroke:#fff;stroke-linejoin:round;stroke-width:2.5px"/>
  <polygon points="723.21 488.44 733.12 484.21 758.41 496.62 748.53 501.85 723.21 488.44" style="fill:none;stroke:#fff;stroke-linejoin:round;stroke-width:2.5px"/>
  <polygon points="733.95 477.19 742.86 472.98 767.13 484.41 758.25 489.62 733.95 477.19" style="fill:none;stroke:#fff;stroke-linejoin:round;stroke-width:2.5px"/>
  <polygon points="742.67 464.98 750.6 461.79 775.87 473.2 767.97 477.39 742.67 464.98" style="fill:none;stroke:#fff;stroke-linejoin:round;stroke-width:2.5px"/>
  <polygon points="751.41 453.77 761.34 450.54 786.61 461.95 775.71 466.21 751.41 453.77" style="fill:none;stroke:#fff;stroke-linejoin:round;stroke-width:2.5px"/>
  <polygon points="762.15 442.52 771.05 438.31 796.33 449.72 786.45 454.95 762.15 442.52" style="fill:none;stroke:#fff;stroke-linejoin:round;stroke-width:2.5px"/>
  <polyline points="783.49 133.4 695.99 183.68 752.99 216.68" style="fill:none;stroke:#fff;stroke-linecap:round;stroke-miterlimit:10;stroke-width:2.5px"/>
  <line x1="482.99" y1="534.68" x2="521.99" y2="556.68" style="fill:none;stroke:#fff;stroke-miterlimit:10;stroke-width:2.5px"/>
  <line x1="509.99" y1="495.68" x2="548.49" y2="517.53" style="fill:none;stroke:#fff;stroke-miterlimit:10;stroke-width:2.5px"/>
  <line x1="539.47" y1="522.77" x2="559.99" y2="534.68" style="fill:none;stroke:#fff;stroke-miterlimit:10;stroke-width:2.5px"/>
  <line x1="976.99" y1="245.68" x2="867.99" y2="307.68" style="fill:none;stroke:#fff;stroke-miterlimit:10;stroke-width:2.5px"/>
  <line x1="886.35" y1="436.81" x2="851.99" y2="417.68" style="fill:none;stroke:#fff;stroke-miterlimit:10;stroke-width:2.5px"/>
  <polyline points="1079.49 400.18 964.49 334.18 939.49 348.18" style="fill:none;stroke:#fff;stroke-miterlimit:10;stroke-width:2.5px"/>
  <line x1="507.99" y1="383.68" x2="528.68" y2="371.75" style="fill:none;stroke:#fff;stroke-miterlimit:10;stroke-width:2.5px"/>
  <line x1="477.99" y1="379.41" x2="507.99" y2="379.41" style="fill:none;stroke:#fff;stroke-miterlimit:10;stroke-width:2.5px"/>
  <line x1="478.49" y1="385.68" x2="508.49" y2="385.68" style="fill:none;stroke:#fff;stroke-miterlimit:10;stroke-width:2.5px"/>
  <line x1="478.49" y1="391.68" x2="508.49" y2="391.68" style="fill:none;stroke:#fff;stroke-miterlimit:10;stroke-width:2.5px"/>
  <line x1="478.49" y1="397.68" x2="508.49" y2="397.68" style="fill:none;stroke:#fff;stroke-miterlimit:10;stroke-width:2.5px"/>
  <line x1="478.49" y1="403.68" x2="508.49" y2="403.68" style="fill:none;stroke:#fff;stroke-miterlimit:10;stroke-width:2.5px"/>
  <polyline points="477.99 406.8 470.99 406.8 470.99 427.68 477.99 427.68 477.99 362.68 494.99 352.68 473.99 340.68 358.99 340.68 206.99 427.68" style="fill:none;stroke:#fff;stroke-miterlimit:10;stroke-width:2.5px"/>
  <rect x="463.99" y="412.8" width="7" height="20.88" style="fill:none;stroke:#fff;stroke-miterlimit:10;stroke-width:2.5px"/>
  <rect x="456.99" y="418.8" width="7" height="20.88" style="fill:none;stroke:#fff;stroke-miterlimit:10;stroke-width:2.5px"/>
  <rect x="449.99" y="423.8" width="7" height="20.88" style="fill:none;stroke:#fff;stroke-miterlimit:10;stroke-width:2.5px"/>
  <rect x="442.99" y="428.8" width="7" height="20.88" style="fill:none;stroke:#fff;stroke-miterlimit:10;stroke-width:2.5px"/>
  <polyline points="435.99 448.68 435.99 432.8 442.99 432.8 442.99 453.68 437.99 453.68" style="fill:none;stroke:#fff;stroke-miterlimit:10;stroke-width:2.5px"/>
  <polyline points="931.43 462.33 950.99 427.68 999.99 399.68 990.99 393.68 1028.75 371.05" style="fill:none;stroke:#fff;stroke-linejoin:round;stroke-width:2.5px"/>
  <polyline points="967.99 406.68 976.67 413 976.99 420.68 986.99 425.68 986.99 433.68 996.99 439.68 996.99 448.68" style="fill:none;stroke:#fff;stroke-miterlimit:10;stroke-width:2.5px"/>
  <polyline points="937.69 465.92 956.99 432.68 999.99 407.68 999.99 399.68" style="fill:none;stroke:#fff;stroke-linejoin:round;stroke-width:2.5px"/>
  <polyline points="945.47 470.38 962.99 440.68 1008.99 412.68 999.99 407.68" style="fill:none;stroke:#fff;stroke-linejoin:round;stroke-width:2.5px"/>
  <polyline points="950.96 473.52 967.99 445.68 1008.99 421.68 1008.99 412.68" style="fill:none;stroke:#fff;stroke-linejoin:round;stroke-width:2.5px"/>
  <polyline points="960.11 478.76 973.99 453.68 1019.99 427.68 1008.99 421.68" style="fill:none;stroke:#fff;stroke-linejoin:round;stroke-width:2.5px"/>
  <polyline points="965.45 481.82 978.99 458.68 1019.99 435.68 1019.99 427.68" style="fill:none;stroke:#fff;stroke-linejoin:round;stroke-width:2.5px"/>
  <line x1="814.49" y1="73.18" x2="814.49" y2="192.18" style="fill:none;stroke:#fff;stroke-miterlimit:10;stroke-width:2px"/>
  <polyline points="191.49 301.18 191.49 156.18 223.49 156.18" style="fill:none;stroke:#fff;stroke-miterlimit:10;stroke-width:2px"/>
  <polyline points="101.49 389.18 101.49 572.18 147.49 572.18" style="fill:none;stroke:#fff;stroke-miterlimit:10;stroke-width:2px"/>

    <polygon id="triangle" points="814.49 2 787.49 48.77 841.49 48.77 814.49 2" style="fill:none;stroke:red;stroke-miterlimit:10;stroke-width:2px"/>
    <circle id="circle" cx="202.49" cy="572.18" r="27" style="fill:none;stroke:red;stroke-miterlimit:10;stroke-width:2px"/>
    <rect id="square" x="249.49" y="133.18" width="54" height="54" style="fill:none;stroke:red;stroke-miterlimit:10;stroke-width:2px"/>
</svg>
