<svg id="level004" xmlns="http://www.w3.org/2000/svg" viewBox="0 0 1289.13 663.44"><title>004</title>
  <path d="M787.83,320.91,506.69,176.1,346.46,269.65,443,326.38l-76.63,42.79-93.55-54.74L7.09,469.69l201,115.44,100.52-58.72s20.9,23.89,54.74,32.84L263.86,617l204,118.43L732.6,582.15,657,537.36l-67.67,39.81-59.71-34.83,63.69-36.82,30.85,18.91,79.62-45.78,446.85,256.76,140.82-81.11-285.9-203q-4.78-3.39-9.37-7c-10.64-8.39-46.39-36.39-103.8-64.69" transform="translate(-4.6 -73.41)" style="fill:none;stroke:#4c367c;stroke-miterlimit:10;stroke-width:2.5px"/>
  <polyline points="344.35 356.97 333.4 362.94 264.73 322.14 336.64 281.06" style="fill:none;stroke:#fff;stroke-miterlimit:10;stroke-width:2.5px"/>
  <line x1="134.65" y1="319.06" x2="149.29" y2="329.1" style="fill:none;stroke:#fff;stroke-miterlimit:10;stroke-width:2.5px"/>
  <line x1="137.96" y1="474.07" x2="179.14" y2="450.52" style="fill:none;stroke:#fff;stroke-miterlimit:10;stroke-width:2.5px"/>
  <polyline points="134.36 396.78 202.03 436.58 305.54 373.89" style="fill:none;stroke:#fff;stroke-miterlimit:10;stroke-width:2.5px"/>
  <line x1="241.84" y1="412.7" x2="257.77" y2="423.65" style="fill:none;stroke:#fff;stroke-miterlimit:10;stroke-width:2.5px"/>
  <line x1="144.31" y1="377.87" x2="231.89" y2="329.1" style="fill:none;stroke:#fff;stroke-miterlimit:10;stroke-width:2.5px"/>
  <line x1="173.17" y1="343.04" x2="267.71" y2="396.8" style="fill:none;stroke:#fff;stroke-miterlimit:10;stroke-width:2.5px"/>
  <line x1="198.18" y1="281.95" x2="242.84" y2="308.2" style="fill:none;stroke:#fff;stroke-miterlimit:10;stroke-width:2.5px"/>
  <path d="M366.86,368.68" transform="translate(-4.6 -73.41)" style="fill:none;stroke:#fff;stroke-miterlimit:10;stroke-width:2.5px"/>
  <path d="M366.86,368.68" transform="translate(-4.6 -73.41)" style="fill:none;stroke:#fff;stroke-miterlimit:10;stroke-width:2.5px"/>
  <polyline points="362.26 295.26 405.06 322.14 393.11 328.11" style="fill:none;stroke:#fff;stroke-miterlimit:10;stroke-width:2.5px"/>
  <polyline points="426.95 338.06 504.58 292.28 437.9 253.47" style="fill:none;stroke:#fff;stroke-miterlimit:10;stroke-width:2.5px"/>
  <polyline points="626.99 228.59 642.91 219.63 610.07 199.72 510.55 258.44 544.38 277.35 552.35 272.38" style="fill:none;stroke:#fff;stroke-miterlimit:10;stroke-width:2px"/>
  <polyline points="524.48 314.17 457.8 351.99 548.37 406.73 626.99 361.94 699.64 404.74" style="fill:none;stroke:#fff;stroke-miterlimit:10;stroke-width:2.5px"/>
  <line x1="626.99" y1="361.94" x2="540.4" y2="311.19" style="fill:none;stroke:#fff;stroke-miterlimit:10;stroke-width:2.5px"/>
  <polyline points="550.36 317.16 597.13 290.29 620.02 302.23 574.05 330.92" style="fill:none;stroke:#fff;stroke-miterlimit:10;stroke-width:2.5px"/>
  <line x1="710.5" y1="411.76" x2="755.37" y2="385.83" style="fill:none;stroke:#fff;stroke-miterlimit:10;stroke-width:2.5px"/>
  <line x1="779.91" y1="451.65" x2="813.09" y2="432.6" style="fill:none;stroke:#fff;stroke-miterlimit:10;stroke-width:2.5px"/>
  <polyline points="674.76 351.99 742.43 312.18 708.6 332.09 756.37 358.96" style="fill:none;stroke:#fff;stroke-miterlimit:10;stroke-width:2.5px"/>
  <line x1="330.4" y1="584.87" x2="378.19" y2="557.01" style="fill:none;stroke:#fff;stroke-miterlimit:10;stroke-width:2.5px"/>
  <line x1="395.65" y1="622.74" x2="440.88" y2="595.82" style="fill:none;stroke:#fff;stroke-miterlimit:10;stroke-width:2.5px"/>
  <line x1="597.04" y1="584.56" x2="543.39" y2="554.02" style="fill:none;stroke:#fff;stroke-miterlimit:10;stroke-width:2.5px"/>
  <line x1="661.37" y1="547.31" x2="609.07" y2="519.19" style="fill:none;stroke:#fff;stroke-miterlimit:10;stroke-width:2.5px"/>
  <line x1="708.58" y1="519.98" x2="680.73" y2="503.26" style="fill:none;stroke:#fff;stroke-miterlimit:10;stroke-width:2.5px"/>
  <line x1="633.88" y1="474.82" x2="657.84" y2="488.34" style="fill:none;stroke:#fff;stroke-miterlimit:10;stroke-width:2.5px"/>
  <line x1="501.59" y1="556.01" x2="561.3" y2="521.18" style="fill:none;stroke:#fff;stroke-miterlimit:10;stroke-width:2.5px"/>
  <line x1="357.29" y1="517.2" x2="506.57" y2="605.77" style="fill:none;stroke:#fff;stroke-miterlimit:10;stroke-width:2.5px"/>
  <line x1="401.08" y1="543.07" x2="422.97" y2="530.13" style="fill:none;stroke:#fff;stroke-miterlimit:10;stroke-width:2.5px"/>
  <line x1="462.11" y1="579.4" x2="484.67" y2="566.96" style="fill:none;stroke:#fff;stroke-miterlimit:10;stroke-width:2.5px"/>
  <line x1="441.88" y1="522.17" x2="501.59" y2="487.34" style="fill:none;stroke:#fff;stroke-miterlimit:10;stroke-width:2.5px"/>
  <line x1="450.84" y1="499.28" x2="464.76" y2="508.83" style="fill:none;stroke:#fff;stroke-miterlimit:10;stroke-width:2.5px"/>
  <polyline points="1201.3 630.14 1119.62 580.89 1187.29 539.09 1204.21 550.04" style="fill:none;stroke:#fff;stroke-miterlimit:10;stroke-width:2.5px"/>
  <line x1="1243.02" y1="573.92" x2="1269.26" y2="591" style="fill:none;stroke:#fff;stroke-miterlimit:10;stroke-width:2.5px"/>
  <line x1="1064.51" y1="615.18" x2="1096.73" y2="595.82" style="fill:none;stroke:#fff;stroke-miterlimit:10;stroke-width:2.5px"/>
  <line x1="1010.14" y1="549.04" x2="1068.86" y2="514.21" style="fill:none;stroke:#fff;stroke-miterlimit:10;stroke-width:2.5px"/>
  <line x1="1046.97" y1="527.15" x2="1094.74" y2="555.01" style="fill:none;stroke:#fff;stroke-miterlimit:10;stroke-width:2.5px"/>
  <polyline points="1137.66 475.01 1102.7 496.3 1076.82 480.37" style="fill:none;stroke:#fff;stroke-miterlimit:10;stroke-width:2.5px"/>
  <line x1="944.46" y1="509.24" x2="1012.13" y2="469.43" style="fill:none;stroke:#fff;stroke-miterlimit:10;stroke-width:2.5px"/>
  <line x1="974.32" y1="419.67" x2="1051.94" y2="464.45" style="fill:none;stroke:#fff;stroke-miterlimit:10;stroke-width:2.5px"/>
  <line x1="876.79" y1="469.43" x2="944.46" y2="429.62" style="fill:none;stroke:#fff;stroke-miterlimit:10;stroke-width:2.5px"/>
  <line x1="867.83" y1="424.64" x2="910.62" y2="449.52" style="fill:none;stroke:#fff;stroke-miterlimit:10;stroke-width:2.5px"/>
  <line x1="796.17" y1="384.83" x2="845.93" y2="412.7" style="fill:none;stroke:#fff;stroke-miterlimit:10;stroke-width:2.5px"/>
  <line x1="826.03" y1="334.08" x2="955.41" y2="408.72" style="fill:none;stroke:#fff;stroke-miterlimit:10;stroke-width:2.5px"/>
  <line x1="790.2" y1="362.94" x2="832.6" y2="337.87" style="fill:none;stroke:#fff;stroke-miterlimit:10;stroke-width:2.5px"/>
  <line x1="869.82" y1="396.78" x2="902.23" y2="378.04" style="fill:none;stroke:#fff;stroke-miterlimit:10;stroke-width:2.5px"/>
  <path d="M462.4,505.27c0-19.37-26.73-35.08-59.71-35.08S343,485.89,343,505.27s26.73,35.08,59.71,35.08" transform="translate(-4.6 -73.41)" style="fill:none;stroke:#fff;stroke-miterlimit:10;stroke-width:2.5px"/>
  <rect x="301.55" y="385.83" width="36.82" height="45.78" style="fill:none;stroke:#fff;stroke-miterlimit:10;stroke-width:2.5px"/>
  <path d="M343,459.24l6-4-32.84-3L306,458.6a.35.35,0,0,0,.21.64Z" transform="translate(-4.6 -73.41)" style="fill:none;stroke:#fff;stroke-linejoin:round;stroke-width:2.5px"/>
  <polygon points="311.51 378.86 322.95 375.38 345.34 381.85 311.51 378.86" style="fill:none;stroke:#fff;stroke-linejoin:round;stroke-width:2.5px"/>
  <polyline points="326.34 375.99 334.4 372.89 353.31 383.84 345.34 385.83 345.34 380.85" style="fill:none;stroke:#fff;stroke-linejoin:round;stroke-width:2.5px"/>
  <polyline points="335.15 373.33 359.28 384.83 353.31 386.82 353.31 383.84" style="fill:none;stroke:#fff;stroke-linejoin:round;stroke-width:2.5px"/>
  <polyline points="359.28 384.83 359.28 388.81 366.24 385.83 346.34 372.89 338.74 375.04" style="fill:none;stroke:#fff;stroke-linejoin:round;stroke-width:2.5px"/>
  <polyline points="366.24 385.83 366.24 389.81 373.21 386.82 358.28 372.89 348.69 374.42" style="fill:none;stroke:#fff;stroke-linejoin:round;stroke-width:2.5px"/>
  <polyline points="373.21 386.82 373.21 390.81 378.19 388.81 368.23 373.89 359.89 374.4" style="fill:none;stroke:#fff;stroke-linejoin:round;stroke-width:2.5px"/>
  <polyline points="378.19 388.81 378.19 392.8 385.15 389.81 377.19 375.88 370.19 376.33" style="fill:none;stroke:#fff;stroke-linejoin:round;stroke-width:2.5px"/>
  <polyline points="385.15 389.81 385.15 393.79 391.12 391.8 383.16 378.86 379.56 379.27" style="fill:none;stroke:#fff;stroke-linejoin:round;stroke-width:2.5px"/>
  <line x1="391.12" y1="391.8" x2="391.12" y2="396.78" style="fill:none;stroke:#fff;stroke-linejoin:round;stroke-width:2.5px"/>
  <path d="M417.61,512" transform="translate(-4.6 -73.41)" style="fill:none;stroke:#fff;stroke-linejoin:round;stroke-width:2.5px"/>
  <path d="M417.61,512" transform="translate(-4.6 -73.41)" style="fill:none;stroke:#fff;stroke-miterlimit:10"/>
  <polyline points="413.02 438.57 413.02 444.55 423.96 442.56 413.02 423.65 407.75 423.65" style="fill:none;stroke:#fff;stroke-linejoin:round;stroke-width:2.5px"/>
  <polyline points="423.96 442.56 423.96 446.54 434.91 444.55 419.98 425.64 415.01 425.64" style="fill:none;stroke:#fff;stroke-linejoin:round;stroke-width:2.5px"/>
  <polyline points="434.91 444.55 434.91 449.52 446.86 447.53 427.95 428.62 422.97 428.62" style="fill:none;stroke:#fff;stroke-linejoin:round;stroke-width:2.5px"/>
  <polyline points="446.86 447.53 446.86 453.5 457.8 450.52 436.9 431.61 431.18 431.86" style="fill:none;stroke:#fff;stroke-linejoin:round;stroke-width:2.5px"/>
  <polyline points="457.8 450.52 457.8 455.49 465.76 452.51 442.87 432.6 438.49 433.04" style="fill:none;stroke:#fff;stroke-linejoin:round;stroke-width:2.5px"/>
  <polyline points="465.76 452.51 465.76 456.49 472.73 450.52 447.85 434.6 445.51 434.9" style="fill:none;stroke:#fff;stroke-linejoin:round;stroke-width:2.5px"/>
  <polyline points="472.73 450.52 472.73 455.49 481.69 448.53 452.83 433.6 444.93 434.39" style="fill:none;stroke:#fff;stroke-linejoin:round;stroke-width:2.5px"/>
  <line x1="455.81" y1="432.6" x2="448.14" y2="434.02" style="fill:none;stroke:#fff;stroke-linejoin:round;stroke-width:2.5px"/>
  <path d="M492.26,518v9c-36.82,39.81-89.57,33.84-89.57,33.84V495.07h9l6,16.92a118.68,118.68,0,0,1-14.93,1" transform="translate(-4.6 -73.41)" style="fill:none;stroke:#fff;stroke-linejoin:round;stroke-width:2.5px"/>
  <polyline points="481.69 448.53 481.69 452.51 487.66 444.55 459.79 431.61 454.68 432.81" style="fill:none;stroke:#fff;stroke-linejoin:round;stroke-width:2.5px"/>
  <path d="M685.33,339.82" transform="translate(-4.6 -73.41)" style="fill:none;stroke:#fff;stroke-miterlimit:10;stroke-width:2.5px"/>
  <path d="M811.72,395.55,699.54,332a.58.58,0,0,0-.57,0L649.5,359.72l-19.9-11.94,50.33-29.61a.28.28,0,0,1,.42.24v7.47" transform="translate(-4.6 -73.41)" style="fill:none;stroke:#fff;stroke-miterlimit:10;stroke-width:2.5px"/>
  <polyline points="674.76 270.03 664.81 263.42 664.81 258.44 675.75 252.47 689.09 261.56" style="fill:none;stroke:#fff;stroke-linejoin:round;stroke-width:2.5px"/>
  <polyline points="664.81 263.42 655.85 268.39 664.81 274.37" style="fill:none;stroke:#fff;stroke-linecap:round;stroke-linejoin:round;stroke-width:2.5px"/>
  <polyline points="655.85 268.39 655.85 274.37 659.83 277.35" style="fill:none;stroke:#fff;stroke-linecap:round;stroke-linejoin:round;stroke-width:2.5px"/>
  <polyline points="655.85 274.37 647.89 279.34 652.54 282.03 647.89 279.34 647.89 284.64" style="fill:none;stroke:#fff;stroke-linecap:round;stroke-linejoin:round;stroke-width:2.5px"/>
  <line x1="664.81" y1="258.44" x2="678.53" y2="267.48" style="fill:none;stroke:#fff;stroke-linejoin:round;stroke-width:2.5px"/>
  <polyline points="783.24 216.64 783.24 272.38 865.84 320.15 865.84 312.18 854.89 306.21 854.89 300.24 844.94 294.27 844.94 287.3 834.99 282.33 834.99 273.37 825.03 268.39 825.03 261.43 816.08 257.45 816.08 249.49 804.13 242.52 804.13 233.56 795.18 229.58 795.18 222.62 783.24 216.64 808.12 202.71 821.05 208.68 821.05 216.64 829.01 220.63 829.01 228.59 839.96 234.56 839.96 243.51 850.91 248.49 850.91 255.46 858.87 259.44 858.87 268.39 869.82 274.37 869.82 281.33 880.77 286.31 880.77 294.27 888.73 298.25 888.73 306.21 865.84 320.15" style="fill:none;stroke:#fff;stroke-linejoin:round;stroke-width:2.5px"/>
  <line x1="795.18" y1="222.61" x2="821.05" y2="208.68" style="fill:none;stroke:#fff;stroke-linejoin:round;stroke-width:2.5px"/>
  <line x1="804.14" y1="234.56" x2="829.02" y2="221.62" style="fill:none;stroke:#fff;stroke-linejoin:round;stroke-width:2.5px"/>
  <line x1="796.17" y1="229.58" x2="821.05" y2="216.64" style="fill:none;stroke:#fff;stroke-linejoin:round;stroke-width:2.5px"/>
  <line x1="804.14" y1="242.52" x2="830.01" y2="228.59" style="fill:none;stroke:#fff;stroke-linejoin:round;stroke-width:2.5px"/>
  <line x1="814.09" y1="248.49" x2="838.97" y2="234.56" style="fill:none;stroke:#fff;stroke-linejoin:round;stroke-width:2.5px"/>
  <line x1="865.84" y1="312.18" x2="888.73" y2="299.37" style="fill:none;stroke:#fff;stroke-linejoin:round;stroke-width:2.5px"/>
  <line x1="855.89" y1="307.21" x2="881.76" y2="293.46" style="fill:none;stroke:#fff;stroke-linejoin:round;stroke-width:2.5px"/>
  <line x1="854.89" y1="300.24" x2="880.77" y2="286.31" style="fill:none;stroke:#fff;stroke-linejoin:round;stroke-width:2.5px"/>
  <line x1="816.08" y1="257.45" x2="839.96" y2="243.51" style="fill:none;stroke:#fff;stroke-linejoin:round;stroke-width:2.5px"/>
  <line x1="825.03" y1="262.42" x2="849.91" y2="248.49" style="fill:none;stroke:#fff;stroke-linejoin:round;stroke-width:2.5px"/>
  <line x1="826.03" y1="269.39" x2="850.91" y2="255.46" style="fill:none;stroke:#fff;stroke-linejoin:round;stroke-width:2.5px"/>
  <line x1="833.99" y1="274.37" x2="858.87" y2="260.43" style="fill:none;stroke:#fff;stroke-linejoin:round;stroke-width:2.5px"/>
  <line x1="834.99" y1="281.33" x2="859.87" y2="267.4" style="fill:none;stroke:#fff;stroke-linejoin:round;stroke-width:2.5px"/>
  <line x1="843.94" y1="287.3" x2="868.82" y2="273.37" style="fill:none;stroke:#fff;stroke-linejoin:round;stroke-width:2.5px"/>
  <line x1="846.93" y1="295.27" x2="870.81" y2="282.33" style="fill:none;stroke:#fff;stroke-linejoin:round;stroke-width:2.5px"/>
  <line x1="539.91" y1="71.84" x2="539.91" y2="208.18" style="fill:none;stroke:#fff;stroke-miterlimit:10;stroke-width:2px"/>
  <polyline points="450.34 547.55 608.58 547.55 608.58 630.15 631.47 630.15" style="fill:none;stroke:#fff;stroke-miterlimit:10;stroke-width:2px"/>
  <line x1="1001.68" y1="259.94" x2="1001.68" y2="501.77" style="fill:none;stroke:#fff;stroke-miterlimit:10;stroke-width:2px"/>
  <polyline points="427.45 292.78 427.45 208.18 651.87 208.18 651.87 398.77" style="fill:none;stroke:#fff;stroke-miterlimit:10;stroke-width:2px"/>

  <polygon id="triangle" points="539.91 2 513.04 48.54 566.78 48.54 539.91 2" style="fill:none;stroke:#4c367c;stroke-miterlimit:10;stroke-width:2px"/>
  <circle id="circle" cx="684.21" cy="630.15" r="26.87" style="fill:none;stroke:#4c367c;stroke-miterlimit:10;stroke-width:2px"/>
  <rect id="square" x="974.81" y="183.3" width="53.74" height="53.74" style="fill:none;stroke:#4c367c;stroke-miterlimit:10;stroke-width:2px"/>
</svg>
