<svg id="level005" xmlns="http://www.w3.org/2000/svg" viewBox="0 0 1229.5 817.72"><title>005</title>
  <path d="M771.5,96.5" transform="translate(-45.49 -15.23)" style="fill:none;stroke:#1493a3;stroke-miterlimit:10;stroke-width:2.5px"/>
  <path d="M637.1,174.38" transform="translate(-45.49 -15.23)" style="fill:none;stroke:#fff;stroke-miterlimit:10;stroke-width:2.5px"/>
  <path d="M166.12,489.51,48,423,232.5,314.5l-76-46,198-116,119,68,55-33-86.28-48.67a19.66,19.66,0,0,1,.18-34.34L588.3,24.13a61.72,61.72,0,0,1,60.2.37h0l377.37,221.08a12,12,0,0,1-.45,21L856.05,356.27a31.54,31.54,0,0,1-30.73-.68L576.5,209.5" transform="translate(-45.49 -15.23)" style="fill:none;stroke:#1493a3;stroke-miterlimit:10;stroke-width:2.5px"/>
  <path d="M514.67,245.3" transform="translate(-45.49 -15.23)" style="fill:none;stroke:#1493a3;stroke-miterlimit:10;stroke-width:2.5px"/>
  <path d="M759.77,372.54c-80.09-46.4-147.27-80-205.27-110" transform="translate(-45.49 -15.23)" style="fill:none;stroke:#1493a3;stroke-miterlimit:10;stroke-width:2.5px"/>
  <path d="M904.21,458.11c59.51,36.4,99.29,62.39,99.29,62.39l122,102-34,19,181,104-148,86-532-306-99,57-52-31-79,46-42.19-23.21" transform="translate(-45.49 -15.23)" style="fill:none;stroke:#1493a3;stroke-miterlimit:10;stroke-width:2.5px"/>
  <line x1="698.68" y1="97.11" x2="726.01" y2="81.27" style="fill:none;stroke:#fff;stroke-miterlimit:10;stroke-width:2.5px"/>
  <line x1="593.32" y1="158.16" x2="669.24" y2="114.17" style="fill:none;stroke:#fff;stroke-miterlimit:10;stroke-width:2.5px"/>
  <polyline points="350.01 338.27 336.01 346.27 303.01 326.27 531.01 194.27 566.81 173.52" style="fill:none;stroke:#fff;stroke-miterlimit:10;stroke-width:2.5px"/>
  <line x1="96.4" y1="445.57" x2="83.38" y2="453.12" style="fill:none;stroke:#fff;stroke-miterlimit:10;stroke-width:2.5px"/>
  <polyline points="86.77 355.65 170.01 404.27 154.92 413.03" style="fill:none;stroke:#fff;stroke-miterlimit:10;stroke-width:2.5px"/>
  <polyline points="187.01 299.27 303.01 370.27 204.01 427.27" style="fill:none;stroke:#fff;stroke-miterlimit:10;stroke-width:2.5px"/>
  <line x1="428.01" y1="205.27" x2="225.76" y2="322.99" style="fill:none;stroke:#fff;stroke-miterlimit:10;stroke-width:2.5px"/>
  <polyline points="600.01 479.27 547.01 510.27 337.01 388.27" style="fill:none;stroke:#fff;stroke-miterlimit:10;stroke-width:2.5px"/>
  <line x1="454.01" y1="456.27" x2="358.01" y2="512.27" style="fill:none;stroke:#fff;stroke-miterlimit:10;stroke-width:2.5px"/>
  <line x1="372.88" y1="409.11" x2="428.01" y2="377.27" style="fill:none;stroke:#fff;stroke-miterlimit:10;stroke-width:2.5px"/>
  <polyline points="462.01 357.27 523.01 321.27 666.01 404.27" style="fill:none;stroke:#fff;stroke-miterlimit:10;stroke-width:2.5px"/>
  <polyline points="504.01 441.27 545.51 417.27 587.01 393.27" style="fill:none;stroke:#fff;stroke-miterlimit:10;stroke-width:2.5px"/>
  <line x1="545.01" y1="417.27" x2="605.01" y2="451.27" style="fill:none;stroke:#fff;stroke-miterlimit:10;stroke-width:2.5px"/>
  <line x1="673.01" y1="539.27" x2="756.01" y2="491.27" style="fill:none;stroke:#fff;stroke-miterlimit:10;stroke-width:2.5px"/>
  <line x1="654.01" y1="480.27" x2="714.51" y2="515.27" style="fill:none;stroke:#fff;stroke-miterlimit:10;stroke-width:2.5px"/>
  <line x1="645.01" y1="453.27" x2="696.01" y2="423.27" style="fill:none;stroke:#fff;stroke-miterlimit:10;stroke-width:2.5px"/>
  <line x1="687.01" y1="417.27" x2="846.01" y2="510.27" style="fill:none;stroke:#fff;stroke-miterlimit:10;stroke-width:2.5px"/>
  <line x1="751.01" y1="597.27" x2="803.01" y2="566.27" style="fill:none;stroke:#fff;stroke-miterlimit:10;stroke-width:2.5px"/>
  <line x1="739.01" y1="529.27" x2="846.01" y2="591.27" style="fill:none;stroke:#fff;stroke-miterlimit:10;stroke-width:2.5px"/>
  <polyline points="836.01 635.27 919.01 586.27 878.01 610.27 934.01 642.27" style="fill:none;stroke:#fff;stroke-miterlimit:10;stroke-width:2.5px"/>
  <line x1="892.7" y1="709.11" x2="929.01" y2="688.27" style="fill:none;stroke:#fff;stroke-miterlimit:10;stroke-width:2.5px"/>
  <line x1="974.01" y1="688.27" x2="978.01" y2="731.27" style="fill:none;stroke:#fff;stroke-miterlimit:10;stroke-width:2.5px"/>
  <line x1="1017.01" y1="692.27" x2="1021.01" y2="736.27" style="fill:none;stroke:#fff;stroke-miterlimit:10;stroke-width:2.5px"/>
  <polyline points="956.01 675.27 972.01 665.27 1057.01 715.27 994.01 753.27" style="fill:none;stroke:#fff;stroke-miterlimit:10;stroke-width:2.5px"/>
  <line x1="1127.42" y1="673.05" x2="1079.01" y2="700.27" style="fill:none;stroke:#fff;stroke-miterlimit:10;stroke-width:2.5px"/>
  <polyline points="997.01 653.27 1046.01 626.27 1023.01 612.27" style="fill:none;stroke:#fff;stroke-miterlimit:10;stroke-width:2.5px"/>
  <line x1="869.01" y1="522.27" x2="964.01" y2="577.27" style="fill:none;stroke:#fff;stroke-miterlimit:10;stroke-width:2.5px"/>
  <line x1="434.01" y1="293.27" x2="508.71" y2="247.18" style="fill:none;stroke:#fff;stroke-linecap:round;stroke-miterlimit:10;stroke-width:2.5px"/>
  <line x1="419.31" y1="258.94" x2="454.58" y2="280.58" style="fill:none;stroke:#fff;stroke-miterlimit:10;stroke-width:2.5px"/>
  <polyline points="440.01 272.27 440.01 264.27 460.38 277" style="fill:none;stroke:#fff;stroke-linejoin:round;stroke-width:2.5px"/>
  <polyline points="440.01 263.27 486.01 236.27 506.98 248.25" style="fill:none;stroke:#fff;stroke-linecap:round;stroke-miterlimit:10;stroke-width:2.5px"/>
  <line x1="468.16" y1="230.66" x2="481.52" y2="238.91" style="fill:none;stroke:#fff;stroke-linejoin:round;stroke-width:2.5px"/>
  <polyline points="683.38 339.67 652.01 359.27 554.01 303.27 583.43 286.21 599.01 294.27" style="fill:none;stroke:#fff;stroke-linecap:round;stroke-miterlimit:10;stroke-width:2.5px"/>
  <path d="M723.5,318.5" transform="translate(-45.49 -15.23)" style="fill:none;stroke:#fff;stroke-miterlimit:10;stroke-width:2.5px"/>
  <polyline points="568.88 311.77 598.96 294.82 598.96 303.27 612.01 309.27 612.01 319.27 622.01 324.27 622.01 335.27 632.01 340.27 632.01 346.92" style="fill:none;stroke:#fff;stroke-linejoin:round;stroke-width:2.5px"/>
  <line x1="599.01" y1="303.27" x2="576.83" y2="316.31" style="fill:none;stroke:#fff;stroke-linejoin:round;stroke-width:2.5px"/>
  <line x1="612.01" y1="309.27" x2="589.08" y2="323.32" style="fill:none;stroke:#fff;stroke-linejoin:round;stroke-width:2.5px"/>
  <line x1="622.01" y1="324.27" x2="607.99" y2="334.12" style="fill:none;stroke:#fff;stroke-linejoin:round;stroke-width:2.5px"/>
  <line x1="612.01" y1="319.27" x2="599.01" y2="328.27" style="fill:none;stroke:#fff;stroke-linejoin:round;stroke-width:2.5px"/>
  <polyline points="632.01 340.27 632.01 340.27 626.2 344.53" style="fill:none;stroke:#fff;stroke-linejoin:round;stroke-width:2.5px"/>
  <line x1="622.01" y1="335.27" x2="616.3" y2="338.87" style="fill:none;stroke:#fff;stroke-linejoin:round;stroke-width:2.5px"/>
  <polygon points="832.01 383.27 832.01 459.27 697.01 382.27 697.01 369.27 711.01 377.27 711.01 369.27 726.01 377.27 726.01 370.27 741.01 378.27 741.01 370.27 755.01 378.27 755.01 370.27 769.01 378.27 769.01 371.27 785.01 380.27 785.01 372.27 800.01 380.27 800.01 372.27 815.01 380.27 815.01 372.27 832.01 383.27" style="fill:none;stroke:#fff;stroke-linecap:round;stroke-linejoin:round;stroke-width:2.5px"/>
  <polyline points="832.01 459.27 859.01 443.27 859.01 368.27 832.01 383.27" style="fill:none;stroke:#fff;stroke-miterlimit:10;stroke-width:2.5px"/>
  <polyline points="697.01 369.27 724.01 353.27 731.94 357.31" style="fill:none;stroke:#fff;stroke-linecap:round;stroke-linejoin:round;stroke-width:2.5px"/>
  <polyline points="711.01 369.27 739.01 353.27 748.25 357.92" style="fill:none;stroke:#fff;stroke-linecap:round;stroke-linejoin:round;stroke-width:2.5px"/>
  <polyline points="726.01 370.27 753.01 355.27 761.01 359.16" style="fill:none;stroke:#fff;stroke-linecap:round;stroke-linejoin:round;stroke-width:2.5px"/>
  <polyline points="741.01 370.27 768.01 355.27 775.53 359.28" style="fill:none;stroke:#fff;stroke-linecap:round;stroke-linejoin:round;stroke-width:2.5px"/>
  <polyline points="755.01 370.27 783.01 355.27 790.67 359.24" style="fill:none;stroke:#fff;stroke-linecap:round;stroke-linejoin:round;stroke-width:2.5px"/>
  <polyline points="769.01 371.27 796.01 356.27 804.26 361.27" style="fill:none;stroke:#fff;stroke-linecap:round;stroke-linejoin:round;stroke-width:2.5px"/>
  <polyline points="785.01 372.27 813.01 356.27 820.16 360.33" style="fill:none;stroke:#fff;stroke-linecap:round;stroke-linejoin:round;stroke-width:2.5px"/>
  <polyline points="800.01 372.27 827.01 356.27 834.01 360.27" style="fill:none;stroke:#fff;stroke-linecap:round;stroke-linejoin:round;stroke-width:2.5px"/>
  <polyline points="815.01 372.27 843.01 356.27 859.01 366.27" style="fill:none;stroke:#fff;stroke-linecap:round;stroke-linejoin:round;stroke-width:2.5px"/>
  <path d="M256,510.77l-42.72-24.26-1.71-1q-2,0-4,0c-65.17,0-118,30-118,67s52.83,67,118,67,118-30,118-67q0-1.15-.07-2.28l-44.26-25.13" transform="translate(-45.49 -15.23)" style="fill:none;stroke:#1493a3;stroke-miterlimit:10;stroke-width:2.5px"/>
  <line x1="99.01" y1="560.27" x2="210.01" y2="495.27" style="fill:none;stroke:#fff;stroke-linecap:round;stroke-miterlimit:10;stroke-width:2.5px"/>
  <line x1="122.01" y1="575.27" x2="235.01" y2="509.27" style="fill:none;stroke:#fff;stroke-linecap:round;stroke-miterlimit:10;stroke-width:2.5px"/>
  <path d="M167.57,590.33c11.6,4.53,25,5.17,39.93,5.17,40.59,0,74-17.48,74-41.5,0-8.6-4.22-16.62-11.49-23.37" transform="translate(-45.49 -15.23)" style="fill:none;stroke:#fff;stroke-miterlimit:10;stroke-width:2.5px"/>
  <path d="M245.26,516.5a114,114,0,0,0-37.26-6c-40.59,0-73.5,19.48-73.5,43.5,0,7.9,3.56,15.31,9.79,21.7" transform="translate(-45.49 -15.23)" style="fill:none;stroke:#fff;stroke-linecap:round;stroke-miterlimit:10;stroke-width:2.5px"/>
  <path d="M138.46,569.5H96.55a.73.73,0,0,1-.46-1.3l9.21-7.54a.58.58,0,0,1,.46-.12l31.37,5" transform="translate(-45.49 -15.23)" style="fill:none;stroke:#fff;stroke-miterlimit:10;stroke-width:2.5px"/>
  <polyline points="65.01 546.27 73.01 542.27 76.83 543.19 89.66 546.27" style="fill:none;stroke:#fff;stroke-miterlimit:10;stroke-width:2.5px"/>
  <line x1="77.01" y1="543.27" x2="88.01" y2="540.27" style="fill:none;stroke:#fff;stroke-miterlimit:10;stroke-width:2.5px"/>
  <line x1="127.54" y1="576.92" x2="126.54" y2="600.37" style="fill:none;stroke:#fff;stroke-linecap:round;stroke-miterlimit:10;stroke-width:2.5px"/>
  <polyline points="128.01 580.27 135.01 580.27 141.69 602.38" style="fill:none;stroke:#fff;stroke-linecap:round;stroke-miterlimit:10;stroke-width:2.5px"/>
  <polyline points="137.01 584.27 143.01 584.27 152.81 603.11" style="fill:none;stroke:#fff;stroke-linecap:round;stroke-miterlimit:10;stroke-width:2.5px"/>
  <polyline points="144.01 585.27 151.01 585.27 153.81 588.92 164.53 603.11" style="fill:none;stroke:#fff;stroke-linecap:round;stroke-miterlimit:10;stroke-width:2.5px"/>
  <polyline points="155.01 589.27 162.01 589.27 173.99 602.38" style="fill:none;stroke:#fff;stroke-linecap:round;stroke-miterlimit:10;stroke-width:2.5px"/>
  <polyline points="165.01 592.27 170.01 592.27 180.33 602.38" style="fill:none;stroke:#fff;stroke-linecap:round;stroke-miterlimit:10;stroke-width:2.5px"/>
  <polyline points="172.01 594.27 179.01 594.27 186.79 601.67" style="fill:none;stroke:#fff;stroke-linecap:round;stroke-miterlimit:10;stroke-width:2.5px"/>
  <path d="M226.5,611.5" transform="translate(-45.49 -15.23)" style="fill:none;stroke:#fff;stroke-miterlimit:10;stroke-width:2.5px"/>
  <polyline points="182.01 596.27 187.01 596.27 191.98 600.94" style="fill:none;stroke:#fff;stroke-linecap:round;stroke-miterlimit:10;stroke-width:2.5px"/>
  <polyline points="190.01 598.27 196.01 597.27 199.01 599.27" style="fill:none;stroke:#fff;stroke-linecap:round;stroke-miterlimit:10;stroke-width:2.5px"/>
  <polyline points="173.51 359.77 173.51 320.77 307.01 320.77 440.51 320.77 440.51 515.77" style="fill:none;stroke:#fff;stroke-miterlimit:10;stroke-width:2px"/>
  <polyline points="307.51 320.77 307.51 169.77 187.51 169.77 187.51 143.77" style="fill:none;stroke:#fff;stroke-miterlimit:10;stroke-width:2px"/>
  <line x1="549.51" y1="449.77" x2="549.51" y2="632.77" style="fill:none;stroke:#fff;stroke-miterlimit:10;stroke-width:2px"/>
  <polyline points="1073.51 437.77 1073.51 463.77 878.51 463.77 878.51 566.77" style="fill:none;stroke:#fff;stroke-miterlimit:10;stroke-width:2px"/>
  <line x1="574.09" y1="26.04" x2="603.01" y2="9.27" style="fill:none;stroke:#fff;stroke-miterlimit:10;stroke-width:2.5px"/>
  <line x1="469.12" y1="86.94" x2="545.59" y2="42.58" style="fill:none;stroke:#fff;stroke-miterlimit:10;stroke-width:2.5px"/>
  <line x1="402.26" y1="125.72" x2="441.04" y2="103.23" style="fill:none;stroke:#fff;stroke-miterlimit:10;stroke-width:2.5px"/>

  <polygon id="blueTriangle" points="187.01 74.18 160.14 120.72 213.88 120.72 187.01 74.18" style="fill:none;stroke:#1493a3;stroke-miterlimit:10;stroke-width:2px" class = "hastip" title = "Bathrooms"/>
  <circle id="blueCircle" cx="549.32" cy="682.34" r="26.87" style="fill:none;stroke:#1493a3;stroke-miterlimit:10;stroke-width:2px" class = "hastip" title = "Andry Warhol Galleries"/>
  <rect id="blueSquare" x="1046.92" y="361.49" width="53.74" height="53.74" style="fill:none;stroke:#1493a3;stroke-miterlimit:10;stroke-width:2px" class = "hastip" title = "Frieda Kahlo, Frieda and Diego Rivera"/>
</svg>
