<svg id="level006" xmlns="http://www.w3.org/2000/svg" viewBox="0 0 1254.96 784.94"><title>006</title>
  <path d="M667.5,261.5c30.55,16.36,70.37,37.25,91,51,0,0,351,225,367,247l-46,27,199,117-167,97-687-394-57,34-186-108,61-34-214-124,197-116s157.46,65.69,297,130" transform="translate(-26.02 -17)" style="fill:none;stroke:#f45f8f;stroke-miterlimit:10;stroke-width:2.5px"/>
  <line x1="216.48" y1="281.5" x2="268.48" y2="311.5" style="fill:none;stroke:#fff;stroke-miterlimit:10;stroke-width:2.5px"/>
  <polyline points="398.48 389.5 291.48 327.5 358.48 288.5" style="fill:none;stroke:#fff;stroke-miterlimit:10;stroke-width:2.5px"/>
  <line x1="322.92" y1="93.96" x2="262.48" y2="130.5" style="fill:none;stroke:#fff;stroke-miterlimit:10;stroke-width:2.5px"/>
  <line x1="219.48" y1="157.5" x2="281.48" y2="193.5" style="fill:none;stroke:#fff;stroke-miterlimit:10;stroke-width:2.5px"/>
  <polyline points="280.48 246.5 259.48 259.5 214.48 232.5 350.48 154.5 394.48 180.5 373.48 193.5" style="fill:none;stroke:#fff;stroke-miterlimit:10;stroke-width:2.5px"/>
  <line x1="445.48" y1="362.5" x2="537.48" y2="308.5" style="fill:none;stroke:#fff;stroke-miterlimit:10;stroke-width:2.5px"/>
  <line x1="491.48" y1="335.5" x2="555.48" y2="372.5" style="fill:none;stroke:#fff;stroke-miterlimit:10;stroke-width:2.5px"/>
  <line x1="491.48" y1="443.32" x2="553.48" y2="407.5" style="fill:none;stroke:#fff;stroke-miterlimit:10;stroke-width:2.5px"/>
  <line x1="645.48" y1="479.5" x2="739.48" y2="425.5" style="fill:none;stroke:#fff;stroke-miterlimit:10;stroke-width:2.5px"/>
  <line x1="608.48" y1="421.5" x2="678.06" y2="460.79" style="fill:none;stroke:#fff;stroke-miterlimit:10;stroke-width:2.5px"/>
  <polyline points="398.48 267.5 467.48 227.5 625.48 318.5" style="fill:none;stroke:#fff;stroke-miterlimit:10;stroke-width:2.5px"/>
  <line x1="601.48" y1="375.5" x2="662.48" y2="340.5" style="fill:none;stroke:#fff;stroke-miterlimit:10;stroke-width:2.5px"/>
  <line x1="650.48" y1="334.5" x2="828.48" y2="436.5" style="fill:none;stroke:#fff;stroke-miterlimit:10;stroke-width:2.5px"/>
  <line x1="828.48" y1="585.5" x2="919.48" y2="532.5" style="fill:none;stroke:#fff;stroke-miterlimit:10;stroke-width:2.5px"/>
  <line x1="885.23" y1="668.66" x2="956.48" y2="628.5" style="fill:none;stroke:#fff;stroke-miterlimit:10;stroke-width:2.5px"/>
  <line x1="1113.48" y1="692.5" x2="1176.22" y2="730.21" style="fill:none;stroke:#fff;stroke-miterlimit:10;stroke-width:2.5px"/>
  <line x1="1022.48" y1="706.5" x2="1156.15" y2="629.87" style="fill:none;stroke:#fff;stroke-miterlimit:10;stroke-width:2.5px"/>
  <line x1="1022.48" y1="635.5" x2="1083.01" y2="671.8" style="fill:none;stroke:#fff;stroke-miterlimit:10;stroke-width:2.5px"/>
  <polyline points="906.48 570.5 977.48 613.5 1055.78 568.15 1022.48 548.5" style="fill:none;stroke:#fff;stroke-miterlimit:10;stroke-width:2.5px"/>
  <line x1="996.48" y1="532.5" x2="853.48" y2="449.5" style="fill:none;stroke:#fff;stroke-miterlimit:10;stroke-width:2.5px"/>
  <polyline points="699.77 276.76 659.48 297.5 852.48 410.5" style="fill:none;stroke:#fff;stroke-miterlimit:10;stroke-width:2.5px"/>
  <line x1="870.44" y1="386.5" x2="841.54" y2="404.1" style="fill:none;stroke:#fff;stroke-miterlimit:10;stroke-width:2.5px"/>
  <polyline points="862.48 390.5 853.48 384.5 831.14 398.01" style="fill:none;stroke:#fff;stroke-miterlimit:10;stroke-width:2.5px"/>
  <polyline points="849.48 386.5 841.48 381.5 822.93 393.2" style="fill:none;stroke:#fff;stroke-miterlimit:10;stroke-width:2.5px"/>
  <polyline points="835.48 385.5 828.48 380.5 814.87 388.48" style="fill:none;stroke:#fff;stroke-miterlimit:10;stroke-width:2.5px"/>
  <polyline points="823.48 383.5 815.48 377.5 806.36 383.5" style="fill:none;stroke:#fff;stroke-miterlimit:10;stroke-width:2.5px"/>
  <polygon points="496.48 123.5 496.48 198.5 609.48 263.5 609.48 253.5 595.48 246.5 595.48 237.5 582.48 230.5 582.48 220.5 567.48 210.5 567.48 200.5 554.48 193.5 554.48 184.5 541.48 177.5 541.48 167.5 525.48 157.5 525.48 148.5 511.48 140.5 511.48 131.5 496.48 123.5" style="fill:none;stroke:#fff;stroke-linecap:round;stroke-linejoin:round;stroke-width:2.5px"/>
  <polyline points="496.48 123.5 529.48 104.5 545.48 112.5 511.48 131.5" style="fill:none;stroke:#fff;stroke-linecap:round;stroke-linejoin:round;stroke-width:2.5px"/>
  <polyline points="545.48 112.5 545.48 122.5 513.48 140.5" style="fill:none;stroke:#fff;stroke-linecap:round;stroke-linejoin:round;stroke-width:2.5px"/>
  <polyline points="545.48 122.5 558.48 129.5 525.48 148.5" style="fill:none;stroke:#fff;stroke-linecap:round;stroke-linejoin:round;stroke-width:2.5px"/>
  <polyline points="558.48 129.5 558.48 139.5 526.48 157.5" style="fill:none;stroke:#fff;stroke-linecap:round;stroke-linejoin:round;stroke-width:2.5px"/>
  <polyline points="558.48 139.5 575.48 148.5 542.48 167.5" style="fill:none;stroke:#fff;stroke-linecap:round;stroke-linejoin:round;stroke-width:2.5px"/>
  <polyline points="575.48 148.5 575.48 158.5 543.48 176.5" style="fill:none;stroke:#fff;stroke-linecap:round;stroke-linejoin:round;stroke-width:2.5px"/>
  <polyline points="575.48 158.5 587.48 165.5 554.48 184.5" style="fill:none;stroke:#fff;stroke-linecap:round;stroke-linejoin:round;stroke-width:2.5px"/>
  <polyline points="587.48 165.5 587.48 175.5 555.48 193.5" style="fill:none;stroke:#fff;stroke-linecap:round;stroke-linejoin:round;stroke-width:2.5px"/>
  <polyline points="587.48 175.5 601.48 182.5 568.48 201.5" style="fill:none;stroke:#fff;stroke-linecap:round;stroke-linejoin:round;stroke-width:2.5px"/>
  <polyline points="601.48 182.5 601.48 192.5 569.48 210.5" style="fill:none;stroke:#fff;stroke-linecap:round;stroke-linejoin:round;stroke-width:2.5px"/>
  <polyline points="601.48 192.5 615.48 201.5 582.48 220.5" style="fill:none;stroke:#fff;stroke-linecap:round;stroke-linejoin:round;stroke-width:2.5px"/>
  <polyline points="615.48 201.5 615.48 211.5 583.48 229.5" style="fill:none;stroke:#fff;stroke-linecap:round;stroke-linejoin:round;stroke-width:2.5px"/>
  <polyline points="615.48 211.5 628.48 218.5 595.48 237.5" style="fill:none;stroke:#fff;stroke-linecap:round;stroke-linejoin:round;stroke-width:2.5px"/>
  <polyline points="628.48 218.5 628.48 228.5 596.48 246.5" style="fill:none;stroke:#fff;stroke-linecap:round;stroke-linejoin:round;stroke-width:2.5px"/>
  <polyline points="628.48 228.5 642.48 235.5 609.48 254.5" style="fill:none;stroke:#fff;stroke-linecap:round;stroke-linejoin:round;stroke-width:2.5px"/>
  <polyline points="642.48 235.5 642.48 245.5 609.48 263.5" style="fill:none;stroke:#fff;stroke-linecap:round;stroke-linejoin:round;stroke-width:2.5px"/>
  <path d="M522.5,188.83" transform="translate(-26.02 -17)" style="fill:none;stroke:#fff;stroke-linecap:round;stroke-linejoin:round;stroke-width:2.5px"/>
  <path d="M668.5,260.51" transform="translate(-26.02 -17)" style="fill:none;stroke:#fff;stroke-linecap:round;stroke-linejoin:round;stroke-width:2.5px"/>
  <line x1="241.98" y1="327" x2="241.98" y2="443" style="fill:none;stroke:#fff;stroke-miterlimit:10;stroke-width:2px"/>
  <line x1="108.98" y1="113" x2="108.98" y2="80" style="fill:none;stroke:#fff;stroke-miterlimit:10;stroke-width:2px"/>
  <line x1="1098.98" y1="461" x2="1098.98" y2="624" style="fill:none;stroke:#fff;stroke-miterlimit:10;stroke-width:2px"/>
  <polyline points="108.98 113 337.98 113 337.98 141" style="fill:none;stroke:#fff;stroke-miterlimit:10;stroke-width:2px"/>

  <circle id="circle" cx="108.98" cy="28" r="27" style="fill:none;stroke:#f45f8f;stroke-miterlimit:10;stroke-width:2px"/>
  <rect id="square" x="1071.98" y="380" width="54" height="54" style="fill:none;stroke:#f45f8f;stroke-miterlimit:10;stroke-width:2px"/>
  <polygon id="triangle" points="241.98 468.82 214.98 515.59 268.98 515.59 241.98 468.82" style="fill:none;stroke:#f45f8f;stroke-miterlimit:10;stroke-width:2px"/>
</svg>
