<svg id="level007" xmlns="http://www.w3.org/2000/svg" viewBox="0 0 1163.93 739.94"><title>test</title>
  <path id="green" d="M68.5,185.5l176-101s262,106,326,143l-20,13s565,308,651,394l-21,12,47,29-155,90-633-365-54,32-173-101,53-31Z" transform="translate(-66 -27)" style="fill:none;stroke:lime;stroke-miterlimit:10;stroke-width:2.5px"/><polyline points="330.5 155.5 306.5 169.5 343.5 192.5 329.5 201.5" style="fill:none;stroke:#fff;stroke-miterlimit:10;stroke-width:2.5px"/><polyline points="253.5 243.5 199.5 273.5 250.5 303.5" style="fill:none;stroke:#fff;stroke-miterlimit:10;stroke-width:2.5px"/><polyline points="236.5 252.5 199.5 230.5 306.5 169.5" style="fill:none;stroke:#fff;stroke-miterlimit:10;stroke-width:2.5px"/><polyline points="371.5 348.5 410.5 322.5 337.5 280.5 277.5 316.5 373.5 373.5 505.5 288.5" style="fill:none;stroke:#fff;stroke-miterlimit:10;stroke-width:2.5px"/>
  <path d="M514.4,212.76" transform="translate(-66 -27)" style="fill:none;stroke:#fff;stroke-miterlimit:10;stroke-width:2.5px"/>
  <path d="M482.34,215.64" transform="translate(-66 -27)" style="fill:none;stroke:#fff;stroke-miterlimit:10;stroke-width:2.5px"/>
  <path d="M493.52,219.72" transform="translate(-66 -27)" style="fill:none;stroke:#fff;stroke-miterlimit:10;stroke-width:2.5px"/>
  <path d="M509.82,225.66" transform="translate(-66 -27)" style="fill:none;stroke:#fff;stroke-miterlimit:10;stroke-width:2.5px"/>
  <path d="M513.5,213.5" transform="translate(-66 -27)" style="fill:none;stroke:#fff;stroke-miterlimit:10;stroke-width:2.5px"/><line x1="408.38" y1="154.42" x2="376.5" y2="173.5" style="fill:none;stroke:#fff;stroke-miterlimit:10;stroke-width:2.5px"/>
  <path d="M497.58,191.82" transform="translate(-66 -27)" style="fill:none;stroke:#fff;stroke-miterlimit:10;stroke-width:2.5px"/><polyline points="484.5 213.5 484.5 213.5 397.5 183.5 429.68 163.96" style="fill:none;stroke:#fff;stroke-linecap:round;stroke-linejoin:round;stroke-width:2.5px"/><polyline points="416.5 188.5 445.14 171.01 445.5 183.5 428.76 194.28 445.5 183.5 456.5 188.5 441.47 198.66" style="fill:none;stroke:#fff;stroke-linecap:round;stroke-linejoin:round;stroke-width:2.5px"/>
  <path d="M517.31,229.06" transform="translate(-66 -27)" style="fill:none;stroke:#fff;stroke-miterlimit:10;stroke-width:2.5px"/><polyline points="456.5 188.5 456.5 198.5 467.5 202.5 463.09 206.12 467.5 202.5 467.5 207.64" style="fill:none;stroke:#fff;stroke-linecap:round;stroke-linejoin:round;stroke-width:2.5px"/>
    <line x1="456.5" y1="198.5" x2="451.81" y2="202.23" style="fill:none;stroke:#fff;stroke-linecap:round;stroke-linejoin:round;stroke-width:2.5px"/>
    <line x1="436.5" y1="221.5" x2="677.5" y2="361.5" style="fill:none;stroke:#fff;stroke-linecap:round;stroke-linejoin:round;stroke-width:2.5px"/>
    <line x1="487.5" y1="324.5" x2="547.65" y2="286.07" style="fill:none;stroke:#fff;stroke-linecap:round;stroke-linejoin:round;stroke-width:2.5px"/>
    <line x1="405.5" y1="255.5" x2="449.49" y2="229.05" style="fill:none;stroke:#fff;stroke-linecap:round;stroke-linejoin:round;stroke-width:2.5px"/>
    <line x1="484.42" y1="437.46" x2="546.5" y2="399.5" style="fill:none;stroke:#fff;stroke-linecap:round;stroke-linejoin:round;stroke-width:2.5px"/>
    <line x1="482.5" y1="401.5" x2="582.5" y2="336.5" style="fill:none;stroke:#fff;stroke-linecap:round;stroke-linejoin:round;stroke-width:2.5px"/>
    <line x1="582.5" y1="458.5" x2="680.5" y2="399.5" style="fill:none;stroke:#fff;stroke-linecap:round;stroke-linejoin:round;stroke-width:2.5px"/>
    <line x1="532.5" y1="369" x2="631.5" y2="429" style="fill:none;stroke:#fff;stroke-linecap:round;stroke-linejoin:round;stroke-width:2.5px"/>
    <line x1="1003.5" y1="551.5" x2="1114.5" y2="619.5" style="fill:none;stroke:#fff;stroke-linecap:round;stroke-linejoin:round;stroke-width:2.5px"/><line x1="704.5" y1="377.5" x2="970.83" y2="531.64" style="fill:none;stroke:#fff;stroke-linecap:round;stroke-linejoin:round;stroke-width:2.5px"/>
    <line x1="735.5" y1="467.5" x2="797.09" y2="431.09" style="fill:none;stroke:#fff;stroke-linecap:round;stroke-linejoin:round;stroke-width:2.5px"/><line x1="704.5" y1="520.5" x2="794.5" y2="467.5" style="fill:none;stroke:#fff;stroke-linecap:round;stroke-linejoin:round;stroke-width:2.5px"/>
    <polyline points="730.5 529.5 845.5 594.5 960.74 525.8" style="fill:none;stroke:#fff;stroke-linecap:round;stroke-linejoin:round;stroke-width:2.5px"/><line x1="735.5" y1="502.24" x2="841.5" y2="562.5" style="fill:none;stroke:#fff;stroke-linecap:round;stroke-linejoin:round;stroke-width:2.5px"/><line x1="780.57" y1="475.7" x2="916.97" y2="551.89" style="fill:none;stroke:#fff;stroke-linecap:round;stroke-linejoin:round;stroke-width:2.5px"/>
  <path d="M771.48,353.52" transform="translate(-66 -27)" style="fill:none;stroke:red;stroke-miterlimit:10;stroke-width:2.5px"/><line x1="227" y1="320" x2="227" y2="436" style="fill:none;stroke:#fff;stroke-miterlimit:10;stroke-width:2px"/>

  <polygon id="triangle" points="227 464.82 200 511.59 254 511.59 227 464.82" style="fill:none;stroke:lime;stroke-miterlimit:10;stroke-width:2px" class="hastip" title="Bathrooms"/><line x1="701.5" y1="354.5" x2="701.5" y2="218.5" style="fill:none;stroke:#fff;stroke-miterlimit:10;stroke-width:2px"/>
  <circle id="circle" cx="702" cy="163" r="27" style="fill:none;stroke:lime;stroke-miterlimit:10;stroke-width:2px" class="hastip" title="Sculpture Terrace"/><polyline points="249.5 155.5 249.5 28 307 28" style="fill:none;stroke:#fff;stroke-miterlimit:10;stroke-width:2px"/>
  <g class="hastip" title="Soundtracks Exhibit" >
    <a href="https://www.sfmoma.org/exhibition/soundtracks">
      <rect id="square" x="332" y="1" width="54" height="54" style="fill:none;stroke:lime;stroke-miterlimit:10;stroke-width:2px"/>
    </a>
  </g>
</svg>
